<?xml version="1.0" encoding="UTF-8"?>
<svg xmlns="http://www.w3.org/2000/svg" version="1.1" viewBox="0 0 1278 614">
  <defs>
    <style>
      .cls-1 {
        fill: #1e96be;
      }

      .cls-2 {
        fill: #303235;
      }
    </style>
  </defs>
  <!-- Generator: Adobe Illustrator 28.6.0, SVG Export Plug-In . SVG Version: 1.2.0 Build 709)  -->
  <g>
    <g id="Layer_1">
      <path class="cls-2" d="M631.7,395.4c2.9,2,3.6,5.9,1.7,8.8-.2.2-.4.5-.6.7-38.6,42.8-83,59.9-127.9,59.9-88.5,0-159-63.5-159-146.8,0-82.7,61.1-147.7,149.5-147.7s95,18,133.6,60.9c2.4,2.6,2.2,6.6-.4,9-.2.2-.4.3-.6.5l-48.2,34c-2.8,2-6.6,1.4-8.6-1.3-25.7-33.7-64.1-43.6-95.3-37.1-31.4,6.5-57.6,37-57.6,79.2s40.8,84.5,86.6,84.5,50.5-10.9,71.5-35.4c2.1-2.4,5.7-2.9,8.3-1.1l47,31.9Z"/>
      <path class="cls-2" d="M940.2,318.6c0-82.1,65.4-148.1,147.4-148.1s147.4,66,147.4,148.1-66,148.1-148.1,148.1-146.8-66.7-146.8-148.1ZM1088.2,399.4c43.2,0,78.2-35,78.2-78.2,0-43.2-35-78.2-78.2-78.2-43.2,0-78.2,35-78.2,78.2h0c0,43.2,35,78.2,78.2,78.2Z"/>
      <path class="cls-2" d="M273.7,363.5c-2.6-1.8-6.2-1.4-8.3,1.1-20.9,24.5-44.8,35.4-71.4,35.4-12.1,0-24-2.5-35.1-7.4l155-147.6c5-4.7,5.3-12.6.6-17.7-37.8-40-80.8-56.1-124.4-56.1-88.4,0-155.1,64.1-155.1,146.8s70.5,146.8,159,146.8,89.2-17.1,127.9-59.9c2.4-2.6,2.2-6.6-.4-9-.2-.2-.4-.4-.7-.5l-47-31.9ZM123.6,257.9c30.8-32.4,80.5-30.3,105-12.6l-112.6,106.8c-16.8-21.4-19.7-65.5,7.6-94.2Z"/>
      <path class="cls-1" d="M906.2,285.2l-96.9.7.3-106.1c0-3.8-3.1-6.9-6.9-6.9h-59.8c-3.8,0-6.9,3.1-6.9,6.9l.3,106.1-96.9-.7c-3.8,0-7,3-7,6.8,0,0,0,0,0,0v50.6c0,3.8,3.1,6.9,6.9,6.9,0,0,0,0,0,0l96.9-.7-.8,108.4c0,3.8,3,6.9,6.8,7,0,0,0,0,0,0h60.8c3.8,0,6.9-3.1,6.9-6.9,0,0,0,0,0,0l-.8-108.4,96.9.7c3.8,0,6.9-3,7-6.8,0,0,0,0,0,0v-50.7c0-3.8-3.1-6.9-6.9-6.9,0,0,0,0,0,0Z"/>
    </g>
  </g>
</svg>